<svg width="32" height="32" viewBox="0 0 32 32" fill="none" xmlns="http://www.w3.org/2000/svg">
  <!-- Fondo circular con gradiente -->
  <circle cx="16" cy="16" r="16" fill="url(#gradient)" />
  
  <!-- Yunque/Forge base -->
  <rect x="6" y="20" width="20" height="4" rx="1" fill="#E5E7EB" />
  <rect x="8" y="18" width="16" height="2" rx="1" fill="#F3F4F6" />
  
  <!-- Martillo -->
  <rect x="12" y="8" width="8" height="3" rx="1.5" fill="#374151" />
  <rect x="15" y="6" width="2" height="14" rx="1" fill="#6B7280" />
  
  <!-- Chispas/Skills -->
  <circle cx="22" cy="10" r="1.5" fill="#FCD34D" opacity="0.8" />
  <circle cx="25" cy="13" r="1" fill="#F59E0B" opacity="0.6" />
  <circle cx="24" cy="8" r="0.8" fill="#FBBF24" opacity="0.7" />
  
  <!-- Engranaje pequeño (Skills) -->
  <g transform="translate(8,10)">
    <circle cx="0" cy="0" r="2.5" fill="none" stroke="#9CA3AF" stroke-width="1"/>
    <circle cx="0" cy="0" r="1" fill="#6B7280"/>
    <rect x="-0.5" y="-3" width="1" height="1" fill="#9CA3AF"/>
    <rect x="-0.5" y="2" width="1" height="1" fill="#9CA3AF"/>
    <rect x="-3" y="-0.5" width="1" height="1" fill="#9CA3AF"/>
    <rect x="2" y="-0.5" width="1" height="1" fill="#9CA3AF"/>
  </g>
  
  <!-- Definición del gradiente -->
  <defs>
    <linearGradient id="gradient" x1="0%" y1="0%" x2="100%" y2="100%">
      <stop offset="0%" style="stop-color:#7C3AED;stop-opacity:1" />
      <stop offset="50%" style="stop-color:#3B82F6;stop-opacity:1" />
      <stop offset="100%" style="stop-color:#06B6D4;stop-opacity:1" />
    </linearGradient>
  </defs>
</svg>